<svg width="23" height="24" viewBox="0 0 23 24" fill="none" xmlns="http://www.w3.org/2000/svg">
<circle cx="11.5" cy="12.5" r="11.5" fill="#FFC700"/>
<path d="M17.2456 11.2628C17.2456 12.4178 16.9339 13.3628 16.3105 14.0978C15.687 14.8263 14.9094 15.1905 13.9775 15.1905C13.4919 15.1905 13.0423 15.0986 12.6289 14.9148C12.222 14.7311 11.7659 14.4161 11.2606 13.9698C10.7553 13.517 10.3911 13.2381 10.168 13.1331C9.95141 13.0216 9.71844 12.9658 9.46906 12.9658C9.02937 12.9658 8.68156 13.1364 8.42562 13.4777C8.17625 13.8189 8.05156 14.2652 8.05156 14.8164H6.15172C6.15172 13.6942 6.45031 12.7755 7.0475 12.0602C7.64469 11.3383 8.42891 10.9773 9.40016 10.9773C9.88578 10.9773 10.3452 11.0758 10.7783 11.2727C11.218 11.463 11.6741 11.7747 12.1466 12.2078C12.6256 12.6409 12.9734 12.9133 13.19 13.0248C13.4131 13.1364 13.6527 13.1922 13.9086 13.1922C14.3483 13.1922 14.7059 13.0084 14.9816 12.6409C15.2572 12.2734 15.395 11.8141 15.395 11.2628H17.2456Z" fill="white"/>
</svg>
