<svg width="46" height="47" viewBox="0 0 46 47" fill="none" xmlns="http://www.w3.org/2000/svg">
<path d="M22.8333 0C16.0309 0 8.02787 1.6185 1.19471 5.13843L0.133301 5.6794V6.88594C0.133301 14.1399 0.269642 33.4973 21.832 46.3089L22.8333 46.9129L23.8346 46.3089C45.397 33.4973 45.5333 14.1399 45.5333 6.88594V5.69552L44.4792 5.14576C37.7296 1.6097 29.6357 0 22.8333 0ZM22.8333 3.93336C28.652 3.93336 35.7065 5.42138 41.5472 8.23176C41.531 15.8302 40.7306 30.7954 22.8333 42.1029C4.93601 30.7954 4.12677 15.8302 4.11943 8.23176C10.0525 5.41551 17.0146 3.93336 22.8333 3.93336Z" fill="#00B2FF"/>
</svg>
